/* XPM */
static char *lios1[] = {
/* columns rows colors chars-per-pixel */
"32 32 138 2 ",
"   c #2C462C2B2C6E",
".  c #33EF33E833FB",
"X  c #3C5B3C543C65",
"o  c #440B4408440F",
"O  c #4BD34BD44BD1",
"+  c #50114F705107",
"@  c #53DB53D953DF",
"#  c #5B775B745B78",
"$  c #608F61925ECD",
"%  c #5FFA5F6260E2",
"&  c #64296423642F",
"*  c #69D16D516482",
"=  c #680867C26874",
"-  c #6BD66BD36BDD",
";  c #71507681693B",
":  c #74C074BD74C6",
">  c #7A327C5A76D3",
",  c #7BB07BAC7BB6",
"<  c #79369E543E61",
"1  c #795381D86C1E",
"2  c #8266A8D945E5",
"3  c #8710AE2F4985",
"4  c #8B85B37F4CA5",
"5  c #8FA7B8594FA2",
"6  c #9442BC275600",
"7  c #9650BD785971",
"8  c #98DABEEF5D9A",
"9  c #81E683F17EAA",
"0  c #86588B887E18",
"q  c #86F693D47301",
"w  c #9A7FBF2761B3",
"e  c #9D68BEB769A6",
"r  c #9560A74379A8",
"t  c #9BB7AF087DF7",
"y  c #A580BEA37EA5",
"u  c #9800C23855BC",
"i  c #98DCC2B7571D",
"p  c #9C48C62C5AE4",
"a  c #9F14CA5A5C3C",
"s  c #A239CE605E67",
"d  c #A3E5CF156043",
"f  c #A60BCB166D1D",
"g  c #A5F1D2466180",
"h  c #A9AFD6956470",
"j  c #AC6FD9A6661A",
"k  c #AFA6DCD268E1",
"l  c #B166DDCE6C39",
"z  c #A7B6C7F87633",
"x  c #A754C1F27E76",
"c  c #ABD3CBF97A28",
"v  c #AEE2D52F73C2",
"b  c #B3BFDD7B7269",
"n  c #B48BE2CB6C7C",
"m  c #B8EFE8686F98",
"M  c #B7E2E6397001",
"N  c #BC79EC36729F",
"B  c #BA6CE2257C56",
"V  c #C1D2F2A57675",
"C  c #CB7CFDC37DA7",
"Z  c #152B865FAD66",
"A  c #18BF8701ACF5",
"S  c #1A0588A1AEC0",
"D  c #22CB838FA4AA",
"F  c #20F18AB5AF3A",
"G  c #2E5E91F2B444",
"H  c #44F79A19B786",
"J  c #561CA405BEC4",
"K  c #5962A36BBCC5",
"L  c #6D06A977BE2F",
"P  c #72FCABA2BF28",
"I  c #7E98B170C2D5",
"U  c #8364835F8363",
"Y  c #893A8D9D8259",
"T  c #87B3876D8821",
"R  c #884687FF88C7",
"E  c #8BAC8BAD8BB2",
"W  c #9051984783E0",
"Q  c #90F693568D48",
"!  c #96759D4C8BD2",
"~  c #93DD93E193D9",
"^  c #997999839946",
"/  c #9DD9AD5585C2",
"(  c #9807A09C8ACF",
")  c #9C49A7788ADD",
"_  c #9F57A0BF9D1A",
"`  c #A2B6B71A8330",
"'  c #A563B9C285D0",
"]  c #A247B1DD8A28",
"[  c #A257AE2590E5",
"{  c #A4E5B1979154",
"}  c #AD28BD6B94AD",
"|  c #A429A478A3B7",
" . c #A92EAA9FA6F2",
".. c #AC5FAC72ABEC",
"X. c #AF62B0BFAD53",
"o. c #B543B618B32A",
"O. c #BB2FBDC8B723",
"+. c #B526BB73BD9D",
"@. c #BD15BD73BC90",
"#. c #BDC5DFDC8819",
"$. c #AF9CC0E494EA",
"%. c #B6A4CB669664",
"&. c #BD1ED5919715",
"*. c #BE16E2FC84A2",
"=. c #BF48C25FBA68",
"-. c #C0BDDB8B96F6",
";. c #C34CDEF3987B",
":. c #C229E5648B84",
">. c #CF53FFFF8164",
",. c #C5BAE56094C4",
"<. c #C7A9E89D94B1",
"1. c #CB03ED37966C",
"2. c #CC43EA9F9DC8",
"3. c #CF03F3199795",
"4. c #CE3BF1559827",
"5. c #D221F6A49919",
"6. c #D412F99299CF",
"7. c #D21CEFCCA470",
"8. c #D50AF217A812",
"9. c #D7ADF427AB8F",
"0. c #821EB25FC30F",
"q. c #922FBEADCDBF",
"w. c #AA4FC016C7B3",
"e. c #B81CBE3DC057",
"r. c #A70AC1D4CB14",
"t. c #ABDBC398CBC7",
"y. c #BEDAD0F6D710",
"u. c #C3E3C3B8C3A7",
"i. c #CBEECBF0CBEE",
"p. c #D033D05AD029",
"a. c #C0AFCCC5D0EF",
"s. c #CB51D1C3D408",
"d. c #D5A1D5B0D5AB",
"f. c #D8C3D7D1D76E",
"g. c #DCB5D968D844",
"h. c #D6B9D9A0DA8E",
"j. c #D962D8E6D8BA",
"k. c None",
/* pixels */
"k.k.X + # # # # # # # # @ # # @ # @ @ @ @ @ @ @ + @ + + O . k.k.",
"k.o : R U R T U U U U U U U U U , U , U U , , , , , , : : & X k.",
"X : U U U U U U U U U U U U U U , , , , , , , , : : : : : : & . ",
"O U U , U U 1 U U U U U , , U U , : , , , , , : : - : - - - = o ",
"@ , , , , , , , U U U , : U U , : - : , , , , : - - - - - = - O ",
"@ , , , , , : : , U , U : , ~ ..| T : , , : : - - = = - - = & o ",
"+ , , : , , , : , , U , , ^ p.f.h.p.^ , , , : = & = - - = & & o ",
"+ : : , : , : : - , , U R u.f.f.f.h.u.U : : & % & - - = = & $ o ",
"+ : : : : , , , - : , , Q p.f.f.f.f.p.R , - # & - - - = & # # X ",
"O - - : : : : , : = : , U u.j.f.f.j.@., : & # = ; - = & # @ @ o ",
"o = = - : : : : , : - , , E e.s.p.+.E , - % : : - = # @ @ # # o ",
"o & % & & - : > : , - : R ~ ^ X. .E ~ U & - : - % @ # # & # @ o ",
"O & & # # # # = : , : U u.f.d.d.d.p.f.u.U : = # # & & & # # @ o ",
"O = = = & & & # # & U e.h.g.g.h.f.f.j.f.+.: & = = & & # # @ @ o ",
"o % & & = - - - - - X.0.J q.a.h.f.y.q.J I o.: = = & $ # @ + + X ",
"X + + + @ @ @ # # | j.L Z S G J J G S Z L f.| & # # + O O o o . ",
"X O O O O O O O 1 p.j.P F A S A Z S S F P f.p.U o X X X X X X   ",
". o O O O @ # , i.f.f.a.t.K S A S S K t.a.f.f.u.: O X X . .     ",
"  X o o + # - u.h.h.f.f.g.r.F A S F r.f.f.d.f.j.e.- @ O o . .   ",
". o o O @ @ Q f.f.h.j.j.p.P A A A Z P d.f.f.f.f.j.~ # @ O O X   ",
". o o O O o > i.p.i.e.u.p.0.H D D H 0.s.u.@.i.p.i.R # # @ O o . ",
"> ; $ @ + + # , R U : ^ j.j.s.r.w.s.f.j.| , , : - & & % % % * * ",
"8 f z y ` / ) ! ! Q , _ p.d.d.f.f.f.p.p. .Q Q Y Y W ) ] ' x z e ",
"6 a s g h l l B B :.:.,.2.7.8.9.9.9.7.2.,.,.#.#.*.b l j g s a 6 ",
"6 s s g h h l n s p N V N n C C m g m V V i 4 s l k j h g s a 6 ",
"6 s s g h h l n 6 6 N V j 6 C N 4 s 3 N N < 4 g n k h h g s a 6 ",
"6 a s g h j k l 4 p M p p 6 k s i >.4 a a g 4 < j l j h g s a 7 ",
"8 s s s h j k n 4 2 a l p i k k 4 h 3 l l s 4 3 k j j h g s a 7 ",
"q t x c v b l M l h l V M N C C n s n V V n j n n l l v v z y r ",
"  @ - > 0 ( { $.%.-.;.<.<.4.5.6.6.6.3.4.<.,.-.&.%.} [ ! Y > # . ",
"k.. @ % - - : , R Q ^ | ..X.o.@.=.O.o.X. .^ ~ E U , : - & + X k.",
"k.k.  X O O + @ @ # # % & * - - ; - = = & & # # # + O O o . k.k."
};
